<?xml version="1.0" encoding="utf-8"?>
<!-- Generator: Adobe Illustrator 16.0.0, SVG Export Plug-In . SVG Version: 6.00 Build 0)  -->
<!DOCTYPE svg PUBLIC "-//W3C//DTD SVG 1.1//EN" "http://www.w3.org/Graphics/SVG/1.1/DTD/svg11.dtd">
<svg version="1.1" id="Layer_1" xmlns="http://www.w3.org/2000/svg" xmlns:xlink="http://www.w3.org/1999/xlink" x="0px" y="0px"
	 width="102px" height="32.088px" viewBox="25.665 8.074 102 32.088" enable-background="new 25.665 8.074 102 32.088"
	 xml:space="preserve">
<g>
	
		<linearGradient id="SVGID_1_" gradientUnits="userSpaceOnUse" x1="-251.4297" y1="144.9395" x2="-240.6416" y2="144.9395" gradientTransform="matrix(1 0 0 -1 287.7002 168.3066)">
		<stop  offset="0" style="stop-color:#4CCEFF"/>
		<stop  offset="0.3006" style="stop-color:#49BFFE"/>
		<stop  offset="0.8757" style="stop-color:#4398FC"/>
		<stop  offset="1" style="stop-color:#418FFC"/>
	</linearGradient>
	<path fill="url(#SVGID_1_)" d="M42.983,20.509c0.677,0.214,1.174,0.649,1.593,1.208c0.433,0.575,1.172,0.728,1.76,0.385
		c0.784-0.447,0.958-1.371,0.383-2.139c-1.167-1.544-2.728-2.314-4.852-2.379c-0.297,0.056-0.794,0.085-1.261,0.214
		c-2.365,0.613-4.121,2.58-4.321,5.227c-0.102,1.41,0.299,2.709,1.174,3.834c1.291,1.658,3.005,2.435,5.103,2.271
		c1.785-0.142,3.187-1.023,4.249-2.464c0.419-0.579,0.286-1.434-0.287-1.877c-0.574-0.45-1.436-0.364-1.915,0.202
		c-0.098,0.113-0.2,0.252-0.298,0.374c-0.875,1.036-2.377,1.32-3.615,0.702c-1.216-0.598-1.89-1.99-1.602-3.307
		C39.481,20.986,41.236,19.981,42.983,20.509z"/>
	
		<linearGradient id="SVGID_2_" gradientUnits="userSpaceOnUse" x1="-262.0356" y1="144.1885" x2="-232.5942" y2="144.1885" gradientTransform="matrix(1 0 0 -1 287.7002 168.3066)">
		<stop  offset="0" style="stop-color:#4CCEFF"/>
		<stop  offset="0.3006" style="stop-color:#49BFFE"/>
		<stop  offset="0.8757" style="stop-color:#4398FC"/>
		<stop  offset="1" style="stop-color:#418FFC"/>
	</linearGradient>
	<path fill="url(#SVGID_2_)" d="M53.7,27.133c-1.529-1.192-3.803-0.955-5.064,0.534c-0.267,0.316-0.508,0.659-0.776,0.975
		c-2.333,2.745-6.29,3.52-9.586,1.879c-3.215-1.604-4.982-5.267-4.222-8.753c1.027-4.696,5.661-7.383,10.283-5.955
		c1.781,0.558,3.104,1.716,4.22,3.184c1.142,1.513,3.083,1.915,4.656,1.015c2.056-1.174,2.52-3.604,0.991-5.628
		c-3.071-4.09-7.215-6.136-12.824-6.31c-0.782,0.122-2.089,0.223-3.337,0.548c-6.246,1.643-10.912,6.837-11.429,13.84
		c-0.264,3.594,0.729,6.931,2.878,9.823l-3.825,7.877l7.971-3.874c2.742,1.823,5.946,2.607,9.579,2.322
		c4.724-0.377,8.449-2.688,11.236-6.516C55.566,30.558,55.21,28.31,53.7,27.133z"/>
</g>
<g>
	<g>
		<path fill="#414042" d="M61.885,25.188V12.981h11.656c0.176,0.698,0.313,1.444,0.417,2.24c0.108,0.792,0.176,1.591,0.208,2.385
			c0.035,0.797,0.032,1.576-0.013,2.334c-0.043,0.758-0.126,1.456-0.252,2.101c-0.223,1.208-0.704,2.04-1.438,2.485
			c-0.736,0.445-1.744,0.661-3.006,0.661H61.885z M68.133,27.284l-0.315,3.798c-0.032,0.352-0.045,0.641-0.027,0.854
			c0.018,0.217,0.07,0.385,0.158,0.513c0.085,0.119,0.229,0.209,0.413,0.256c0.193,0.058,0.454,0.085,0.785,0.085l13.107,0.027
			l-0.57,2.882H68.568c-0.825,0-1.53-0.063-2.102-0.188c-0.57-0.118-1.031-0.35-1.382-0.682c-0.346-0.328-0.586-0.777-0.715-1.347
			c-0.128-0.564-0.16-1.292-0.094-2.161l0.297-4.039h3.561V27.284z M70.653,21.313c0.055-0.405,0.099-0.845,0.117-1.326
			c0.023-0.48,0.039-0.958,0.039-1.441c0-0.48-0.017-0.954-0.052-1.426c-0.037-0.471-0.087-0.908-0.159-1.313H65.24v6.576h3.881
			c0.414,0,0.759-0.067,1.025-0.196C70.412,22.063,70.583,21.766,70.653,21.313z M78.168,12.141h3.357v17.373h-3.357V12.141z"/>
	</g>
</g>
<path fill="#414042" d="M83.799,32.926v-3.047h7.603v-5.542h3.428v5.542h10.782l-0.582,3.047H83.799z M98.403,26.673
	c0.312-0.581,0.58-1.221,0.813-1.94c0.221-0.717,0.413-1.469,0.54-2.257H85.01v-3.02h15.093c0.034-0.741,0.045-1.423,0.028-2.052
	c-0.019-0.631-0.071-1.169-0.158-1.629H85.448v-3.023h17.78c0.259,1.066,0.412,2.291,0.458,3.667
	c0.043,1.371-0.011,2.748-0.162,4.136c-0.147,1.383-0.39,2.697-0.717,3.95c-0.339,1.256-0.749,2.296-1.232,3.113L98.403,26.673z"/>
<path fill="#414042" d="M111.387,21.404c1.064,0.109,2.209,0.146,3.438,0.109c1.223-0.033,2.433-0.135,3.615-0.303
	c1.184-0.168,2.281-0.391,3.305-0.657c1.03-0.271,1.874-0.594,2.539-0.955v-7.12h3.381v9.111c0,1.239-0.171,2.335-0.515,3.282
	c-0.333,0.941-0.926,1.691-1.763,2.232c0.696,0.545,1.232,1.176,1.61,1.901c0.377,0.729,0.564,1.517,0.564,2.352
	c0,0.772-0.175,1.502-0.524,2.193c-0.351,0.689-0.844,1.297-1.479,1.811c-0.644,0.518-1.419,0.929-2.337,1.237
	c-0.922,0.306-1.945,0.454-3.083,0.454c-1.155,0-2.185-0.147-3.112-0.444c-0.911-0.294-1.69-0.704-2.322-1.216
	c-0.647-0.517-1.133-1.124-1.471-1.815c-0.342-0.688-0.512-1.429-0.512-2.22c0-0.8,0.17-1.563,0.512-2.268
	c0.338-0.713,0.823-1.331,1.471-1.853c0.632-0.53,1.411-0.942,2.322-1.252c0.928-0.308,1.956-0.453,3.112-0.453
	c0.3,0,0.589,0.008,0.883,0.035c0.286,0.028,0.564,0.06,0.822,0.094c0.489-0.105,0.891-0.244,1.192-0.416
	c0.306-0.183,0.548-0.396,0.724-0.648c0.173-0.254,0.298-0.545,0.368-0.88c0.072-0.336,0.113-0.719,0.127-1.158
	c-0.571,0.331-1.465,0.646-2.659,0.927c-1.195,0.296-2.551,0.53-4.06,0.706c-1.521,0.173-3.105,0.267-4.775,0.275
	c-1.67,0.007-3.252-0.107-4.754-0.352V13h12.291v2.968h-8.908v5.437H111.387z M116.237,31.31c0,0.892,0.36,1.609,1.088,2.147
	c0.718,0.542,1.673,0.815,2.84,0.815c1.188,0,2.149-0.273,2.871-0.815c0.724-0.538,1.089-1.254,1.089-2.147
	c0-0.878-0.365-1.59-1.089-2.133c-0.722-0.538-1.684-0.812-2.871-0.812c-1.167,0-2.122,0.273-2.84,0.812
	C116.597,29.72,116.237,30.432,116.237,31.31z"/>
</svg>
