<?xml version="1.0" encoding="utf-8"?>
<!-- Generator: Adobe Illustrator 16.0.0, SVG Export Plug-In . SVG Version: 6.00 Build 0)  -->
<!DOCTYPE svg PUBLIC "-//W3C//DTD SVG 1.1//EN" "http://www.w3.org/Graphics/SVG/1.1/DTD/svg11.dtd">
<svg version="1.1" id="Layer_1" xmlns="http://www.w3.org/2000/svg" xmlns:xlink="http://www.w3.org/1999/xlink" x="0px" y="0px"
	 width="305.729px" height="101.331px" viewBox="106.508 85.997 305.729 101.331"
	 enable-background="new 106.508 85.997 305.729 101.331" xml:space="preserve">
<path fill="#034EA2" d="M412.061,110.178c-4.049-23.953-75.91-31.376-160.254-16.531c-35.424,6.072-67.475,15.182-92.104,25.303
	c3.711,0,6.748,1.013,8.435,2.699c1.35,1.35,2.024,3.037,2.024,5.398v2.361h-8.435v-2.024c0-1.687-1.013-2.698-3.036-2.698
	c-1.688,0-2.362,0.674-2.699,2.023c0,0.338,0,1.013,0,1.688c1.012,3.711,13.157,5.735,14.507,12.482
	c0.338,1.013,0.338,2.699,0,5.398c-0.675,5.397-5.397,7.422-11.471,7.422c-8.435,0-11.808-4.048-11.808-9.446v-2.699h8.771v3.374
	c0,1.687,1.35,2.699,3.036,2.699s2.699-0.675,3.036-2.024c0-0.675,0.338-1.688,0-2.361c-1.687-4.049-13.157-6.073-14.507-12.82
	c-0.337-1.35-0.337-2.699,0-4.387c0-1.012,0.337-1.687,0.675-2.361c-27.665,12.82-43.859,26.99-41.497,39.474
	c4.048,23.953,75.909,31.376,160.253,16.531c37.111-6.41,70.512-16.194,95.815-26.99c-0.338,0-0.675,0-1.013,0
	c-5.735,0-10.796-2.024-11.471-8.098c0-1.012,0-1.687,0-2.023v-13.495c0-0.675,0-1.688,0-2.024
	c0.675-5.735,5.061-8.098,11.471-8.098c4.724,0,10.796,1.35,11.471,8.098c0,0.675,0,1.687,0,2.024l0,0v1.35h-8.434v-2.024l0,0
	c0,0,0-0.675,0-1.35s-0.675-2.362-3.037-2.362c-2.361,0-3.036,1.688-3.036,2.362c0,0.337,0,1.012,0,1.35v15.182
	c0,0.675,0,1.012,0,1.35c0,0.337,0.338,2.361,3.036,2.361c2.699,0,3.037-2.024,3.037-2.361c0-0.338,0-1.013,0-1.35v-4.724h-3.374
	v-5.061h11.471v8.772c0,0.675,0,1.012,0,2.023c0,1.688-0.675,2.699-1.35,4.049C398.566,136.157,414.084,122.324,412.061,110.178z
	 M193.441,152.35l-4.386-28.677l0,0l-4.386,28.677h-8.771l6.072-32.388h14.508l6.072,32.388H193.441z M236.287,152.35l-0.337-28.002
	l0,0l-5.398,28.34h-8.097l-5.061-28.34l0,0l-0.338,28.34h-8.434l0.675-32.389h13.494l4.049,23.954h0.338l4.048-23.954h13.495
	l0.675,32.389h-9.109V152.35z M275.423,146.278c-1.012,6.41-7.085,7.422-11.471,7.422c-7.085,0-11.808-3.036-11.808-9.446v-2.699
	h8.771v3.036c0,1.688,1.35,2.699,3.036,2.699c1.688,0,2.699-0.675,3.036-2.024c0-0.675,0.338-1.687,0-2.361
	c-1.687-4.049-13.157-6.072-14.507-12.482c-0.337-1.35-0.337-2.699,0-4.387c1.013-6.072,6.748-7.085,11.134-7.085
	c4.048,0,7.085,1.013,8.771,2.699c1.35,1.35,2.024,3.036,2.024,5.398v2.361h-8.098v-2.024c0-1.687-1.012-2.699-2.698-2.699
	c-1.688,0-2.362,0.675-2.699,2.024c0,0.338,0,1.013,0,1.688c1.012,3.711,13.157,5.735,14.507,12.482
	C275.423,141.892,275.761,143.579,275.423,146.278z M305.787,143.242c0,0.674,0,1.687,0,2.023
	c-0.338,5.398-4.386,8.098-11.471,8.098s-10.796-2.699-11.471-8.098c0-0.337,0-1.687,0-2.023v-23.279h8.435v23.953
	c0,0.675,0,1.013,0,1.35c0,0.675,0.674,2.362,3.036,2.362c2.361,0,3.036-1.688,3.036-2.362c0-0.337,0-0.675,0-1.35v-23.953h8.435
	V143.242z M341.886,152.013h-11.808l-7.76-25.641l0,0l0.337,25.641h-8.097v-32.051h12.146l7.085,24.628l0,0l-0.337-24.628h8.097
	v32.051H341.886z"/>
</svg>
